<?xml version="1.0"?>
<svg xmlns="http://www.w3.org/2000/svg" height="512px" viewBox="-8 0 480 480" width="512px"><g><path d="m432 456c0 4.417969-3.582031 8-8 8h-80v-27.359375c-.078125-25.226563-16.941406-47.316406-41.257812-54.039063l-46.742188-12.714843v-12.109375c14.984375-10.433594 23.941406-27.519532 24-45.777344v-15.144531c2.039062-.933594 3.328125-1.597657 3.574219-1.695313 2.714843-1.355468 4.425781-4.128906 4.425781-7.160156v-48l42.871094-16.488281c3.097656-1.183594 5.144531-4.15625 5.144531-7.472657 0-3.316406-2.046875-6.285156-5.144531-7.472656l-104-40c-1.847656-.703125-3.894532-.703125-5.742188 0l-104 40c-3.078125 1.183594-5.113281 4.136719-5.128906 7.433594v36.6875l-21.65625 21.65625 11.3125 11.3125 10.34375-10.34375v12.6875h16v-12.6875l10.34375 10.34375 11.3125-11.3125-21.65625-21.65625v-25.039062l32 12.351562v48c-.015625 3.046875 1.699219 5.839844 4.425781 7.199219.246094.121093 1.535157.761719 3.574219 1.695312v15.105469c-.140625 18.3125 8.859375 35.492188 24 45.800781v12.085938l-46.769531 12.722656c-24.300781 6.726563-41.15625 28.8125-41.230469 54.03125v27.359375h-80c-4.417969 0-8-3.582031-8-8v-312h224v-16h-224v-40c0-4.417969 3.582031-8 8-8h216v-16h-216c-13.253906 0-24 10.746094-24 24v368c0 13.253906 10.746094 24 24 24h400c13.253906 0 24-10.746094 24-24v-296h-16zm-224-80v-10.398438c10.425781 3.207032 21.574219 3.207032 32 0v10.398438c.027344 2.292969 1.042969 4.460938 2.792969 5.945312l-18.792969 15.65625-18.792969-15.648437c1.75-1.484375 2.769531-3.65625 2.792969-5.953125zm16-191.433594 81.710938 31.433594-81.710938 31.433594-81.710938-31.433594zm-2.871094 78.90625c1.847656.703125 3.894532.703125 5.742188 0l45.128906-17.359375v36.796875c-15.070312 7.25-31.335938 11.6875-48 13.089844-16.664062-1.414062-32.929688-5.851562-48-13.097656v-36.796875zm-37.128906 48.527344v-8.585938c12.769531 5.042969 26.285156 7.945313 40 8.585938 13.714844-.640625 27.230469-3.542969 40-8.585938v8.585938c-.019531 14.292969-7.664062 27.492188-20.054688 34.621094-12.390624 7.128906-27.644531 7.101562-40.007812-.070313-3.019531-1.714843-5.785156-3.839843-8.226562-6.3125-7.539063-7.453125-11.761719-17.632812-11.710938-28.238281zm-64 124.640625c.058594-18.015625 12.101562-33.792969 29.464844-38.601563l37.734375-10.261718 31.679687 26.398437c2.96875 2.472657 7.273438 2.472657 10.242188 0l31.679687-26.398437 37.710938 10.253906c17.371093 4.804688 29.421875 20.585938 29.488281 38.609375v27.359375h-24v-32h-16v32h-128v-32h-16v32h-24zm0 0" data-original="#000000" class="active-path" data-old_color="#000000" fill="#5271FF"/><path d="m48 96h16v16h-16zm0 0" data-original="#000000" class="active-path" data-old_color="#000000" fill="#5271FF"/><path d="m80 96h16v16h-16zm0 0" data-original="#000000" class="active-path" data-old_color="#000000" fill="#5271FF"/><path d="m112 96h16v16h-16zm0 0" data-original="#000000" class="active-path" data-old_color="#000000" fill="#5271FF"/><path d="m440 0h-160c-13.253906 0-24 10.746094-24 24v96c0 13.253906 10.746094 24 24 24h24v32c0 3.398438 2.144531 6.425781 5.351562 7.550781.851563.292969 1.746094.445313 2.648438.449219 2.429688 0 4.730469-1.101562 6.246094-3l29.59375-37h92.160156c13.253906 0 24-10.746094 24-24v-96c0-13.253906-10.746094-24-24-24zm8 120c0 4.417969-3.582031 8-8 8h-96c-2.429688 0-4.730469 1.101562-6.246094 3l-17.753906 22.191406v-17.191406c0-4.417969-3.582031-8-8-8h-32c-4.417969 0-8-3.582031-8-8v-96c0-4.417969 3.582031-8 8-8h160c4.417969 0 8 3.582031 8 8zm0 0" data-original="#000000" class="active-path" data-old_color="#000000" fill="#5271FF"/><path d="m304 32h112v16h-112zm0 0" data-original="#000000" class="active-path" data-old_color="#000000" fill="#5271FF"/><path d="m304 64h112v16h-112zm0 0" data-original="#000000" class="active-path" data-old_color="#000000" fill="#5271FF"/><path d="m304 96h112v16h-112zm0 0" data-original="#000000" class="active-path" data-old_color="#000000" fill="#5271FF"/></g> </svg>
